<svg width="720" height="260" viewBox="0 0 720 260" fill="none" xmlns="http://www.w3.org/2000/svg">
  <defs>
    <linearGradient id="grass" x1="0" y1="0" x2="720" y2="260" gradientUnits="userSpaceOnUse">
      <stop stop-color="#0F7A45"/>
      <stop offset="0.55" stop-color="#18A35C"/>
      <stop offset="1" stop-color="#FCD116"/>
    </linearGradient>
    <linearGradient id="ballTrail" x1="82" y1="196" x2="550" y2="46" gradientUnits="userSpaceOnUse">
      <stop stop-color="#FCD116"/>
      <stop offset="0.58" stop-color="#FFFFFF"/>
      <stop offset="1" stop-color="#CE1126"/>
    </linearGradient>
  </defs>
  <rect x="8" y="8" width="704" height="244" rx="42" fill="url(#grass)"/>
  <rect x="8" y="8" width="704" height="244" rx="42" stroke="#FFFFFF" stroke-opacity="0.72" stroke-width="8"/>
  <path d="M86 207H632" stroke="#FFFFFF" stroke-opacity="0.52" stroke-width="5" stroke-linecap="round"/>
  <path d="M104 207C140 155 189 129 251 129C312 129 362 155 399 207" stroke="#FFFFFF" stroke-opacity="0.38" stroke-width="5" stroke-linecap="round"/>
  <path d="M132 55H588V207H132V55Z" stroke="#FFFFFF" stroke-opacity="0.24" stroke-width="5" stroke-linejoin="round"/>
  <path d="M69 177C171 89 295 53 439 68" stroke="url(#ballTrail)" stroke-width="18" stroke-linecap="round"/>
  <path d="M110 194C205 133 314 108 438 118" stroke="#003893" stroke-opacity="0.42" stroke-width="8" stroke-linecap="round"/>
  <circle cx="552" cy="78" r="48" fill="#F8FAFC" stroke="#071B3A" stroke-width="7"/>
  <path d="M552 35L566 61L596 66L574 88L579 119L552 104L525 119L530 88L508 66L538 61L552 35Z" fill="#071B3A"/>
  <path d="M552 35V104M508 66L574 88M596 66L530 88M525 119L566 61M579 119L538 61" stroke="#F8FAFC" stroke-width="5" stroke-linecap="round"/>
  <path d="M541 31C585 19 628 42 641 85" stroke="#CE1126" stroke-width="9" stroke-linecap="round"/>
  <text x="74" y="139" fill="#071B3A" font-family="Arial Black, Arial, sans-serif" font-size="96" font-weight="900" letter-spacing="-3">Exe2</text>
  <text x="80" y="178" fill="#FFFFFF" font-family="Arial, sans-serif" font-size="27" font-weight="800" letter-spacing="3">PREDICE - COMPITE - GANA</text>
  <path d="M73 151H315" stroke="#FCD116" stroke-width="8" stroke-linecap="round"/>
  <path d="M318 151H382" stroke="#CE1126" stroke-width="8" stroke-linecap="round"/>
</svg>
