<svg width="640" height="240" viewBox="0 0 640 240" fill="none" xmlns="http://www.w3.org/2000/svg">
  <rect width="640" height="240" rx="38" fill="#071B3A"/>
  <path d="M0 0H640V86H0V0Z" fill="#FCD116"/>
  <path d="M0 86H640V139H0V86Z" fill="#003893"/>
  <path d="M0 139H640V240H0V139Z" fill="#CE1126"/>
  <path d="M42 32C126 75 207 52 291 95C379 140 462 119 598 170" stroke="white" stroke-opacity="0.28" stroke-width="10" stroke-linecap="round"/>
  <circle cx="522" cy="75" r="42" fill="#F8FAFC"/>
  <path d="M522 34L535 62L566 66L543 88L549 119L522 104L495 119L501 88L478 66L509 62L522 34Z" fill="#111827"/>
  <path d="M522 34V104M478 66L543 88M566 66L501 88M495 119L535 62M549 119L509 62" stroke="#F8FAFC" stroke-width="5" stroke-linecap="round"/>
  <path d="M66 163C124 124 183 127 244 169C301 209 373 209 450 168" stroke="#FCD116" stroke-width="12" stroke-linecap="round"/>
  <text x="58" y="139" fill="white" font-family="Arial Black, Arial, sans-serif" font-size="92" font-weight="900" letter-spacing="-2">Exe2</text>
  <text x="63" y="182" fill="#F8FAFC" font-family="Arial, sans-serif" font-size="28" font-weight="700" letter-spacing="4">POLLA MUNDIALISTA</text>
  <circle cx="575" cy="184" r="16" fill="#FCD116"/>
  <circle cx="575" cy="184" r="8" fill="#003893"/>
  <circle cx="575" cy="184" r="3" fill="#CE1126"/>
</svg>
